<svg width="120" height="90" viewBox="0 0 120 90" fill="none" xmlns="http://www.w3.org/2000/svg">
<path d="M112.5 7.5H101.25V3.75C101.25 1.67812 99.5719 0 97.5 0H75C72.9281 0 71.25 1.67812 71.25 3.75V7.49531L48.75 7.5V3.75C48.75 1.67812 47.0719 0 45 0H22.5C20.4281 0 18.75 1.67812 18.75 3.75V7.5H7.5C3.35859 7.5 0 10.8586 0 15V82.5C0 86.6414 3.35859 90 7.5 90H112.5C116.641 90 120 86.6414 120 82.5V15C120 10.8586 116.641 7.5 112.5 7.5ZM108.75 78.75H11.25V18.75H108.75V78.75Z" fill="black"/>
<path d="M20.625 39.375H46.875C47.9109 39.375 48.75 40.2141 48.75 41.25V48.75C48.75 49.7859 47.9109 50.625 46.875 50.625H20.625C19.5891 50.625 18.75 49.7859 18.75 48.75V41.25C18.75 40.2141 19.5891 39.375 20.625 39.375Z" fill="#0000FF"/>
<path d="M91.875 39.375H99.375C100.411 39.375 101.25 40.2141 101.25 41.25V48.75C101.25 49.7859 100.411 50.625 99.375 50.625H91.875V58.125C91.875 59.1609 91.0359 60 90 60H82.5C81.4641 60 80.625 59.1609 80.625 58.125V50.625H73.125C72.0891 50.625 71.25 49.7859 71.25 48.75V41.25C71.25 40.2141 72.0891 39.375 73.125 39.375H80.625V31.875C80.625 30.8391 81.4641 30 82.5 30H90C91.0359 30 91.875 30.8391 91.875 31.875V39.375Z" fill="#FF0000"/>
</svg>
