<svg class="lamp" fill="none" height="90" viewBox="0 0 250 90" width="250" xmlns="http://www.w3.org/2000/svg">
    <path d="M0 45H250" stroke="black" stroke-width="5"/>
    <g class="lamp__lamp">
        <path class="lamp__bulb"
              d="M124.804 24.9405C115.526 24.9405 108 32.4655 108 41.7505C108 44.8065 108.857 47.6485 110.24 50.1415C114.366 57.5795 115.461 61.7545 116.136 65.7955C116.7 69.1825 117.48 69.9695 120.038 69.9695C121.129 69.9695 122.907 69.9695 124.804 69.9695C126.705 69.9695 128.487 69.9695 129.571 69.9695C132.134 69.9695 132.915 69.1825 133.478 65.7955C134.155 61.7525 135.249 57.5765 139.374 50.1415C140.762 47.6495 141.614 44.8075 141.614 41.7505C141.617 32.4645 134.091 24.9405 124.804 24.9405Z"/>
        <g class="lamp__light">
            <path d="M153.847 22.4995L153.844 22.5025C153.836 22.5035 153.836 22.5035 153.836 22.5035C151.724 23.7245 142.67 28.9525 142.67 28.9525L145.067 33.1125C145.067 33.1125 154.143 27.8735 156.255 26.6545C158.941 25.1065 156.53 20.9655 153.847 22.4995Z"/>
            <path d="M144.478 13.1065C146.01 10.4235 141.873 8.0145 140.328 10.6925C139.519 12.0915 133.666 22.2335 133.666 22.2335L137.828 24.6355C137.828 24.6355 143.027 15.6185 144.474 13.1175C144.477 13.1165 144.477 13.1145 144.477 13.1145L144.478 13.1065Z"/>
            <path d="M127.666 7.3235C127.666 8.0525 127.666 20.1355 127.666 20.1355H122.86C122.86 20.1355 122.86 8.0515 122.86 7.3235C122.86 4.2255 127.666 4.2255 127.666 7.3235Z"/>
            <path d="M105.951 13.1065C104.419 10.4235 108.557 8.0145 110.103 10.6925C110.911 12.0915 116.764 22.2335 116.764 22.2335L112.606 24.6355C112.606 24.6355 107.398 15.6185 105.954 13.1175C105.954 13.1165 105.954 13.1145 105.954 13.1145L105.951 13.1065Z"/>
            <path d="M96.5854 22.4995V22.5025C96.5924 22.5035 96.5924 22.5035 96.5924 22.5035C98.7084 23.7245 107.759 28.9525 107.759 28.9525L105.357 33.1125C105.357 33.1125 96.2814 27.8735 94.1704 26.6545C91.4874 25.1065 93.8974 20.9655 96.5854 22.4995Z"/>
        </g>
        <g class="lamp__base">
            <path d="M130.916 71.1865H118.903C118.403 71.1865 118 71.5885 118 72.0865V72.6885C118 73.1845 118.403 73.5885 118.903 73.5885H130.916C131.409 73.5885 131.813 73.1845 131.813 72.6885V72.0865C131.815 71.5885 131.409 71.1865 130.916 71.1865Z"/>
            <path d="M130.916 74.7895H118.903C118.403 74.7895 118 75.1895 118 75.6895V76.2915C118 76.7875 118.403 77.1895 118.903 77.1895H130.916C131.409 77.1895 131.813 76.7875 131.813 76.2915V75.6895C131.815 75.1905 131.409 74.7895 130.916 74.7895Z"/>
            <path d="M130.916 78.3935H118.903C118.403 78.3935 118 78.7955 118 79.2935V79.8955C118 80.3935 118.403 80.7955 118.903 80.7955H130.916C131.409 80.7955 131.813 80.3935 131.813 79.8955V79.2935C131.815 78.7955 131.409 78.3935 130.916 78.3935Z"/>
            <path d="M120.403 81.9965H129.416C129.416 83.7975 127.01 84.9985 124.903 84.9985C122.806 84.9985 120.403 83.7975 120.403 81.9965Z"/>
        </g>
    </g>
</svg>
