<svg class="resistors__item--background" width="250" height="70" viewBox="0 0 250 70" fill="currentColor">
    <path d="M0 35h250" stroke="#000" stroke-width="5"/>
    <path d="M20.001 68.5h-.006c-.01 0-.03 0-.057-.002a10.794 10.794 0 01-1.254-.134c-.84-.14-1.935-.417-3.013-.956-1.072-.536-2.099-1.316-2.86-2.459C12.055 63.816 11.5 62.237 11.5 60V9.005v-.004l.001-.047a8.484 8.484 0 01.13-1.088 8.78 8.78 0 01.93-2.638 6.696 6.696 0 012.43-2.536C16.13 2.008 17.732 1.5 20 1.5h20c1.675 0 2.51.974 3.811 2.665l.089.115C45.093 5.834 46.756 8 50 8h150c3.244 0 4.907-2.166 6.101-3.72.029-.04.059-.077.088-.115 1.3-1.69 2.136-2.665 3.811-2.665H230.007a4.438 4.438 0 01.06.002c.058.001.148.005.266.012.238.016.586.047 1.007.11.85.127 1.957.38 3.044.869 1.086.488 2.103 1.19 2.848 2.197.732.988 1.268 2.357 1.268 4.31v51c0 2.237-.555 3.816-1.311 4.95-.761 1.142-1.788 1.922-2.86 2.458-1.078.54-2.174.816-3.013.956a10.813 10.813 0 01-1.254.134l-.041.002H210c-1.675 0-2.511-.974-3.811-2.665l-.088-.115C204.907 64.166 203.244 62 200 62H50c-3.244 0-4.907 2.166-6.1 3.72l-.089.115c-1.3 1.69-2.136 2.665-3.811 2.665H20.005h0H20z"
          stroke="#000" stroke-width="3"/>
    <path d="M27 3v64M32 3v64" stroke="green" stroke-width="3" stroke-linejoin="round"/>
    <path d="M67 9.5v51" stroke="#00F" stroke-width="3" stroke-linejoin="round"/>
    <path d="M75 9.5v51" stroke="#9400D3" stroke-width="3" stroke-linejoin="round"/>
    <path d="M83 9.5v51" stroke="#C70000" stroke-width="3" stroke-linejoin="round"/>
    <path d="M222 3v64" stroke="#8B4513" stroke-width="5" stroke-linejoin="round"/>
</svg>