<svg class="resistors__item--background" width="230" height="70" viewBox="0 0 230 70" fill="currentColor"><path d="M10.0014 68.5H10L9.9955 68.4999C9.9849 68.4997 9.96542 68.4993 9.93767 68.4984C9.88212 68.4965 9.79371 68.4926 9.67718 68.4843C9.44362 68.4676 9.10017 68.4335 8.6841 68.3642C7.84484 68.2243 6.74875 67.9473 5.67082 67.4084C4.59877 66.8723 3.57234 66.0919 2.81058 64.9492C2.05507 63.8159 1.5 62.2375 1.5 60V9.00507C1.50001 9.00413 1.50003 9.00279 1.50006 9.00106C1.5002 8.99327 1.50056 8.97755 1.50141 8.95444C1.50313 8.90818 1.50684 8.8326 1.51483 8.73196C1.53085 8.53014 1.56379 8.23073 1.63117 7.86689C1.76709 7.13291 2.03642 6.17313 2.56124 5.22847C3.08123 4.29247 3.84698 3.3786 4.99049 2.69249C6.13177 2.00773 7.73215 1.5 10 1.5H30C31.6754 1.5 32.5107 2.47415 33.8111 4.16457C33.8403 4.20253 33.8697 4.24091 33.8995 4.27967C35.0928 5.83359 36.7564 8 40 8H190C193.244 8 194.907 5.83357 196.101 4.27965C196.13 4.24089 196.16 4.20252 196.189 4.16457C197.489 2.47415 198.325 1.5 200 1.5H219.997L219.998 1.5L219.999 1.5L220 1.5L220.007 1.50012C220.012 1.5002 220.02 1.50033 220.03 1.50054C220.04 1.50076 220.052 1.50108 220.067 1.50152C220.125 1.50324 220.215 1.50687 220.333 1.51449C220.571 1.52976 220.919 1.56088 221.34 1.62403C222.19 1.75147 223.297 2.00357 224.384 2.49288C225.47 2.98133 226.487 3.68385 227.232 4.68972C227.964 5.67808 228.5 7.04713 228.5 9V60C228.5 62.2375 227.945 63.8159 227.189 64.9492C226.428 66.0919 225.401 66.8723 224.329 67.4084C223.251 67.9473 222.155 68.2243 221.316 68.3642C220.9 68.4335 220.556 68.4676 220.323 68.4843C220.206 68.4926 220.118 68.4965 220.062 68.4984C220.045 68.499 220.031 68.4993 220.021 68.4996L220.005 68.4999L220 68.5H219.999H219.998L219.996 68.5H219.995L200 68.5C198.325 68.5 197.489 67.5258 196.189 65.8354L196.101 65.7203C194.907 64.1664 193.244 62 190 62H40C36.7564 62 35.0928 64.1664 33.8995 65.7203C33.8697 65.7591 33.8403 65.7975 33.8111 65.8354C32.5107 67.5258 31.6754 68.5 30 68.5L10.0047 68.5H10.0041L10.0025 68.5H10.0014Z" stroke="black" stroke-width="3"/><path d="M17 3C17 33.1789 17 33.1789 17 33.1789C17 33.1789 17 66.1119 17 67" stroke="#008000" stroke-width="3" stroke-linejoin="round"/><path d="M22 3C22 33.1789 22 33.1789 22 33.1789C22 33.1789 22 66.1119 22 67" stroke="#008000" stroke-width="3" stroke-linejoin="round"/><path d="M57 9.5C57 33.5488 57 33.5488 57 33.5488C57 33.5488 57 59.7923 57 60.5" stroke="#0000FF" stroke-width="3" stroke-linejoin="round"/><path d="M65 9.5C65 33.5488 65 33.5488 65 33.5488C65 33.5488 65.0001 59.7923 65.0001 60.5" stroke="#9400D3" stroke-width="3" stroke-linejoin="round"/><path d="M73 9.5C73 33.5488 73 33.5488 73 33.5488C73 33.5488 73.0001 59.7923 73.0001 60.5" stroke="#C70000" stroke-width="3" stroke-linejoin="round"/><path d="M212 3C212 33.1789 212 33.1789 212 33.1789C212 33.1789 212 66.1119 212 67" stroke="#8B4513" stroke-width="5" stroke-linejoin="round"/></svg>